<?xml version="1.0" encoding="UTF-8" standalone="no"?>
<!-- Created with Inkscape (http://www.inkscape.org/) -->

<svg
   width="16"
   height="16"
   viewBox="0 0 4.2333332 4.2333333"
   version="1.1"
   id="svg1"
   inkscape:version="1.3.2 (091e20e, 2023-11-25, custom)"
   sodipodi:docname="Python.svg"
   xml:space="preserve"
   xmlns:inkscape="http://www.inkscape.org/namespaces/inkscape"
   xmlns:sodipodi="http://sodipodi.sourceforge.net/DTD/sodipodi-0.dtd"
   xmlns="http://www.w3.org/2000/svg"
   xmlns:svg="http://www.w3.org/2000/svg"><sodipodi:namedview
     id="namedview1"
     pagecolor="#000000"
     bordercolor="#000000"
     borderopacity="0.25"
     inkscape:showpageshadow="2"
     inkscape:pageopacity="0.0"
     inkscape:pagecheckerboard="true"
     inkscape:deskcolor="#d1d1d1"
     inkscape:document-units="mm"
     showgrid="true"
     inkscape:zoom="15.662534"
     inkscape:cx="-0.79808285"
     inkscape:cy="9.1619911"
     inkscape:window-width="1920"
     inkscape:window-height="991"
     inkscape:window-x="-9"
     inkscape:window-y="-9"
     inkscape:window-maximized="1"
     inkscape:current-layer="layer1"
     labelstyle="default"
     showguides="true"><inkscape:grid
       id="grid11"
       units="mm"
       originx="0"
       originy="0"
       spacingx="0.99999998"
       spacingy="1"
       empcolor="#0099e5"
       empopacity="0.30196078"
       color="#0099e5"
       opacity="0.14901961"
       empspacing="5"
       dotted="false"
       gridanglex="30"
       gridanglez="30"
       visible="true" /></sodipodi:namedview><defs
     id="defs1" /><g
     inkscape:label="Ebene 1"
     inkscape:groupmode="layer"
     id="layer1"><path
       style="fill:#ffffff;fill-opacity:1;stroke:none;stroke-width:0.0314356;stroke-dasharray:none;stroke-opacity:1"
       d="M 1.297788,2.1976665 C 1.294758,2.1976057 1.290708,2.5226616 1.289428,2.8653277 1.288148,3.2079938 1.263663,3.5765613 1.297788,3.6386506 1.7882125,4.5310224 3.2240838,3.9252448 2.9944308,3.0808503 H 2.0182802 v -0.180123 c 0,-0.014671 1.4661553,0.011141 1.5920551,-0.069725 0.3675334,-0.2360701 0.4396274,-1.8152262 -0.5984732,-1.6792114 -1.524e-4,0.021421 -0.030111,1.0258159 0,1.0168235 0.011145,-0.00333 -1.1153038,0.041037 -1.7140741,0.029052"
       id="path1-2"
       sodipodi:nodetypes="csscccscsc" /><path
       style="fill:#1a7e9f;fill-opacity:1;stroke:none;stroke-width:0.0314356;stroke-dasharray:none;stroke-opacity:1"
       d="m 2.8425971,2.0324898 c 0.00303,6.07e-5 0.00708,-0.3249951 0.00836,-0.6676613 C 2.852239,1.0221624 2.8767208,0.65359487 2.8425971,0.59150549 2.3521726,-0.30086628 0.91630125,0.30491134 1.1459543,1.1493059 h 0.9761506 v 0.180123 c 0,0.014671 -1.46615529,-0.011141 -1.5920551,0.069725 -0.36753367,0.2360702 -0.43962773,1.8152263 0.5984732,1.6792116 1.518e-4,-0.021421 0.030111,-1.0258161 0,-1.0168236 -0.011145,0.00333 1.1153038,-0.041037 1.7140741,-0.029053"
       id="path1-2-6"
       sodipodi:nodetypes="csscccscsc" /><path
       style="fill:none;fill-opacity:1;stroke:none;stroke-width:0.288475;stroke-dasharray:none;stroke-opacity:1"
       d="m 2.1884913,3.7125454 c -0.07211,-0.03029 -0.091285,-0.1182471 -0.037505,-0.1720285 0.065394,-0.065394 0.1757913,-0.019948 0.1757913,0.072366 0,0.068685 -0.078077,0.1249543 -0.1382875,0.099662 z"
       id="path20" /><path
       style="fill:none;fill-opacity:1;stroke:none;stroke-width:0.288475;stroke-dasharray:none;stroke-opacity:1"
       d="m 2.1884913,3.7125454 c -0.07211,-0.03029 -0.091285,-0.1182471 -0.037505,-0.1720285 0.065394,-0.065394 0.1757913,-0.019948 0.1757913,0.072366 0,0.068685 -0.078077,0.1249543 -0.1382875,0.099662 z"
       id="path21" /><path
       style="fill:#21262e;fill-opacity:1;stroke:none;stroke-width:0.3696;stroke-dasharray:none;stroke-opacity:1"
       d="m 2.2077059,3.7108105 c -0.092389,-0.038809 -0.1169564,-0.1515008 -0.04805,-0.2204066 0.083784,-0.083784 0.2252282,-0.025557 0.2252282,0.092717 0,0.088 -0.1000345,0.1600941 -0.1771782,0.1276896 z"
       id="path22" /><path
       style="fill:#21262e;fill-opacity:1;stroke:none;stroke-width:0.3696;stroke-dasharray:none;stroke-opacity:1"
       d="m 1.7643399,0.79813522 c -0.092388,-0.0388088 -0.1169563,-0.15150093 -0.04805,-0.2204067 0.083784,-0.0837843 0.2252283,-0.0255574 0.2252283,0.0927169 0,0.0880004 -0.1000351,0.16009417 -0.1771783,0.1276898 z"
       id="path22-4" /></g></svg>
